# xmcd CD database file
#
# Track frame offsets:
#	182
#	9822
#	20682
#	34892
#	54175
#	66802
#	77770
#	90342
#	102877
#	116127
#	128067
#	141810
#	156250
#	167665
#
# Disc length: 2388 seconds
#
# Revision: 0
# Processed by: cddbd v1.5.2PL0 Copyright (c) Steve Scherf et al.
# Submitted via: CDex 1.70beta2
#
DISCID=a809520e
DTITLE=Grasaci - Nam hrajou country
DYEAR=1992
DGENRE=Country
TTITLE0=Mam prani
TTITLE1=Nocni blues
TTITLE2=Zavan vune
TTITLE3=Zvony z Harmony
TTITLE4=Sedmy den
TTITLE5=Spatnej den
TTITLE6=Ja zpatky jsem tu hned
TTITLE7=Nam hrajou country
TTITLE8=Ideal
TTITLE9=Slunecny kluk
TTITLE10=Jizdni hlidka
TTITLE11=Timhle mestem
TTITLE12=Mejdan v dome
TTITLE13=Kdo se na na chvili kovbojem stal
EXTD=YEAR: 1992
EXTT0=
EXTT1=
EXTT2=
EXTT3=
EXTT4=
EXTT5=
EXTT6=
EXTT7=
EXTT8=
EXTT9=
EXTT10=
EXTT11=
EXTT12=
EXTT13=
PLAYORDER=
